<svg width="1678" height="1677" viewBox="0 0 1678 1677" fill="none" xmlns="http://www.w3.org/2000/svg">
<path d="M955.178 8.08023H953.662C941.034 6.06013 928.406 5.05008 915.778 3.53501L902.645 2.52496L874.864 1.00989H799.096L781.417 2.01994L765.759 3.02998L748.079 5.05008L732.421 6.56516L715.247 9.09028L700.093 11.6154L682.919 14.6455L667.766 17.6757L650.592 21.2109L635.943 24.746L619.274 29.2913L604.626 33.3315L587.957 38.3817L573.814 42.9269L557.65 48.4822L543.507 53.5324L527.343 60.0978L513.705 65.653L497.541 72.7234L484.408 78.2786L468.244 86.359L455.616 92.4193L439.958 101.005L427.835 107.57L411.671 117.166L400.559 123.731L383.385 134.336L348.026 158.578C348.026 158.578 194.976 42.4219 133.857 10.6054C119.897 3.29261 104.283 -0.288039 88.5314 0.210881C72.7794 0.709801 57.4239 5.27135 43.9549 13.4529C30.486 21.6344 19.3611 33.158 11.6597 46.9055C3.95831 60.653 -0.0579553 76.1574 0.000631909 91.9143V838.846C-0.0656977 1051.79 80.9205 1256.78 226.517 1412.2C372.114 1567.62 571.41 1661.82 783.943 1675.67H791.52L816.775 1676.68H878.905C886.482 1676.68 893.553 1675.67 901.13 1675.17L921.84 1673.65L943.56 1671.13L963.765 1668.6L984.979 1665.07L1005.18 1661.03C1012.26 1660.02 1019.33 1658 1026.4 1656.48L1046.1 1651.94L1066.81 1646.38L1086 1640.82L1106.21 1634.26L1125.4 1627.69L1145.1 1620.12L1163.29 1612.54L1182.48 1604.46L1200.66 1595.88L1219.35 1586.79L1237.03 1577.7L1255.22 1567.09L1272.39 1557.5L1290.07 1546.39L1306.74 1535.78L1323.41 1523.66L1339.57 1512.04C1345.17 1508.12 1350.57 1503.9 1355.74 1499.42L1371.39 1487.3L1387.05 1473.66L1402.21 1461.04L1417.36 1446.39L1431 1433.26L1445.65 1418.11L1459.28 1403.97L1472.92 1388.31L1485.55 1373.67L1498.68 1357L1510.81 1341.85L1522.93 1324.68L1534.04 1309.02C1538.08 1302.96 1541.62 1296.9 1545.66 1291.35L1556.27 1274.68C1559.8 1268.62 1563.34 1262.56 1566.37 1256.5C1569.4 1250.44 1573.44 1245.39 1576.47 1239.84L1586.07 1220.64L1595.16 1203.47C1598.19 1196.91 1601.22 1190.34 1603.75 1183.78C1606.27 1177.21 1609.3 1172.16 1611.83 1166.1C1614.36 1160.04 1617.39 1152.47 1619.91 1145.9L1626.98 1128.22C1629.51 1121.15 1631.53 1114.08 1634.06 1107.01L1640.12 1088.83C1642.64 1081.76 1644.16 1074.19 1646.68 1067.12C1649.21 1060.05 1650.22 1055 1651.73 1048.94C1653.25 1042.88 1655.27 1033.79 1656.79 1026.71C1658.3 1019.64 1659.82 1014.59 1660.83 1008.53L1665.37 984.798L1668.4 967.122C1669.92 958.536 1670.42 950.456 1671.43 941.871C1672.44 933.285 1672.95 930.76 1673.96 924.7C1674.97 918.64 1675.47 906.014 1675.98 896.418C1676.57 891.726 1676.9 887.006 1676.99 882.278C1677.5 868.642 1678 855.006 1678 841.371V838.846C1678 636.492 1604.84 440.959 1472.01 288.288C1339.17 135.618 1155.62 36.1002 955.178 8.08023ZM1328.96 731.78L841.526 1218.62C810.839 1249.28 769.234 1266.5 725.854 1266.5C682.475 1266.5 640.87 1249.28 610.182 1218.62L349.037 958.031C320.877 926.79 305.786 885.933 306.878 843.891C307.97 801.849 325.161 761.83 354.905 732.092C384.648 702.354 424.675 685.166 466.724 684.074C508.774 682.982 549.638 698.07 580.886 726.225L725.854 871.672L1097.12 499.974C1128.36 471.819 1169.23 456.731 1211.28 457.823C1253.33 458.915 1293.35 476.103 1323.1 505.841C1352.84 535.579 1370.03 575.598 1371.12 617.64C1372.22 659.682 1357.12 700.539 1328.96 731.78Z" fill="#43C89E"/>
</svg>
